<svg width="321" height="321" viewBox="0 0 321 321" fill="none" xmlns="http://www.w3.org/2000/svg">
<rect width="321" height="321" rx="48" fill="black"/>
<path d="M149.995 240C134.173 240 121.067 236.772 110.675 230.315C100.284 223.792 92.9765 214.578 88.753 202.673C84.5965 190.702 83.8925 176.545 86.6412 160.202C89.3228 144.262 94.7196 130.273 102.832 118.235C111.011 106.196 121.268 96.8138 133.603 90.0883C145.939 83.3627 159.682 80 174.833 80C185.023 80 194.242 81.6477 202.488 84.9432C210.801 88.1715 217.706 93.0811 223.203 99.6721C228.701 106.196 232.455 114.367 234.466 124.187C236.544 134.006 236.511 145.507 234.365 158.689L232.455 170.492H102.128L106.251 143.859H196.353C197.359 137.671 196.957 132.19 195.147 127.415C193.337 122.64 190.32 118.907 186.096 116.217C181.873 113.459 176.677 112.081 170.509 112.081C164.207 112.081 158.308 113.628 152.81 116.721C147.313 119.815 142.687 123.884 138.933 128.928C135.246 133.905 132.866 139.319 131.793 145.17L127.067 171.602C125.726 179.739 125.994 186.499 127.871 191.879C129.815 197.259 133.167 201.295 137.927 203.985C142.687 206.608 148.721 207.919 156.028 207.919C160.788 207.919 165.246 207.247 169.403 205.902C173.627 204.557 177.381 202.573 180.666 199.95C183.951 197.259 186.632 193.93 188.711 189.962L227.829 192.585C224.209 202.135 218.711 210.475 211.337 217.604C203.962 224.666 195.08 230.181 184.688 234.149C174.364 238.05 162.799 240 149.995 240Z" fill="white"/>
</svg>
